<?xml version="1.0" standalone="no"?>
<!DOCTYPE svg PUBLIC "-//W3C//DTD SVG 20010904//EN"
 "http://www.w3.org/TR/2001/REC-SVG-20010904/DTD/svg10.dtd">
<svg version="1.0" xmlns="http://www.w3.org/2000/svg"
 width="471.000000pt" height="471.000000pt" viewBox="0 0 471.000000 471.000000"
 preserveAspectRatio="xMidYMid meet">
<metadata>
Created by potrace 1.14, written by Peter Selinger 2001-2017
</metadata>
<g transform="translate(0.000000,471.000000) scale(0.100000,-0.100000)"
fill="#000000" stroke="none">
<path d="M2210 4468 c-98 -11 -294 -73 -376 -119 -81 -46 -74 -52 9 -8 114 61
126 51 44 -33 -29 -30 -61 -57 -71 -61 -16 -6 -17 -5 -6 8 10 12 10 15 -3 15
-9 0 -18 -4 -21 -9 -7 -10 -46 -3 -46 8 0 4 6 13 13 20 35 37 -37 -15 -116
-84 -140 -122 -247 -282 -306 -458 l-29 -86 21 -14 c65 -42 353 -167 360 -156
16 23 67 184 67 211 0 34 -2 36 -93 81 -51 25 -102 56 -112 68 -16 18 -13 17
17 -5 20 -15 72 -43 115 -61 l77 -34 29 65 c23 54 26 68 16 80 -10 12 -10 17
-1 23 16 10 25 151 9 151 -9 0 -9 3 1 8 21 14 0 47 -31 49 -20 1 -27 -2 -24
-11 4 -10 -1 -12 -15 -8 -14 3 -19 1 -14 -6 5 -8 2 -10 -9 -6 -14 6 -14 8 2
20 16 12 16 15 3 24 -12 7 -12 10 -1 10 7 0 22 11 32 24 11 14 29 26 42 28 12
2 22 10 22 18 0 8 8 15 17 15 9 0 25 8 35 18 11 9 33 19 49 23 26 5 31 1 49
-31 16 -31 23 -36 47 -33 15 3 28 1 28 -2 0 -16 62 -70 72 -64 7 5 3 10 -10
15 -24 9 -29 25 -9 33 9 3 7 9 -5 19 -17 13 -17 15 0 31 25 21 39 20 52 -4 6
-11 15 -18 19 -15 5 2 11 -10 14 -28 5 -36 -10 -52 -32 -34 -11 10 -13 9 -9
-3 5 -15 60 -28 57 -13 -3 20 2 24 16 13 13 -11 14 -10 9 6 -4 10 -10 24 -14
29 -4 6 -7 18 -7 28 0 14 6 17 24 12 13 -3 23 -1 23 5 0 6 -4 9 -9 6 -5 -3
-11 1 -15 9 -7 18 15 20 32 3 9 -9 12 -7 12 9 0 11 -7 24 -16 27 -9 4 -15 9
-12 11 9 10 38 -7 38 -21 0 -8 4 -14 10 -14 5 0 7 13 4 30 -6 26 -3 31 30 47
32 15 38 15 47 3 7 -12 10 -11 15 8 5 19 11 22 28 17 11 -4 30 -8 41 -8 11 -1
34 -12 52 -24 17 -13 35 -23 40 -23 13 0 99 -82 95 -92 -1 -4 4 -7 10 -6 7 2
12 -4 11 -12 -6 -40 -17 -76 -25 -81 -4 -3 -2 -27 6 -53 13 -42 13 -47 -1 -42
-8 3 -21 6 -28 6 -25 0 -95 77 -95 104 0 20 -4 24 -17 19 -13 -5 -15 -2 -11
15 4 12 2 22 -3 22 -5 0 -23 16 -40 35 -24 27 -36 34 -54 29 -17 -4 -24 0 -28
15 -3 12 -1 21 4 21 5 0 9 5 9 10 0 22 -22 8 -31 -20 -6 -16 -15 -27 -20 -24
-11 7 -11 -7 0 -25 5 -8 15 -12 22 -9 8 3 23 2 34 -3 17 -6 16 -8 -9 -8 l-30
-1 32 -28 c18 -16 32 -34 32 -40 0 -6 14 -13 31 -17 38 -9 37 -41 -1 -38 l-25
3 25 -20 c14 -11 45 -26 69 -34 42 -15 43 -15 38 5 -4 16 -3 18 8 9 8 -7 17
-21 21 -32 5 -18 12 -19 52 -13 54 7 112 24 112 32 0 3 -16 29 -36 57 -35 51
-8 27 32 -29 22 -29 22 -29 65 -15 24 8 66 29 92 47 26 18 45 27 41 22 -7 -11
15 -29 79 -66 l39 -23 -7 33 c-4 17 -15 38 -26 46 -10 7 -19 20 -19 27 0 10
-7 13 -23 9 -17 -5 -30 1 -50 22 -65 68 -108 110 -136 131 -38 29 -39 42 -3
42 19 0 23 3 13 9 -8 5 -10 14 -6 21 5 8 3 11 -6 8 -8 -3 -20 2 -28 9 -8 9
-25 12 -45 9 -21 -4 -25 -3 -12 2 15 6 1 13 -60 30 -43 12 -99 24 -124 27 -25
2 -55 7 -68 11 -18 5 -21 3 -16 -10 3 -9 1 -16 -5 -16 -6 0 -11 7 -11 15 0 17
-61 18 -200 3z m395 -99 c6 -6 -4 -7 -25 -3 -19 4 -39 11 -45 16 -7 7 2 8 25
3 19 -4 39 -11 45 -16z m75 -13 c0 -8 -9 -24 -20 -37 l-19 -24 17 37 c19 41
22 45 22 24z m-683 -18 c-3 -8 -6 -5 -6 6 -1 11 2 17 5 13 3 -3 4 -12 1 -19z
m24 -35 c13 -16 12 -17 -3 -4 -10 7 -18 15 -18 17 0 8 8 3 21 -13z m191 -5
c-7 -7 -12 -20 -12 -30 0 -13 -8 -18 -25 -18 -16 0 -25 6 -25 15 0 8 0 18 0
23 -1 4 14 10 32 13 18 4 35 7 38 8 2 0 -1 -4 -8 -11z m-147 -26 c-3 -3 -11 0
-18 7 -9 10 -8 11 6 5 10 -3 15 -9 12 -12z m711 -103 c3 -6 2 -15 -4 -21 -12
-12 -62 -2 -62 13 0 6 4 8 9 4 5 -3 12 -1 16 5 8 13 32 13 41 -1z m-985 -212
c-10 -9 -11 -8 -5 6 3 10 9 15 12 12 3 -3 0 -11 -7 -18z"/>
<path d="M2175 4280 c3 -5 8 -10 11 -10 2 0 4 5 4 10 0 6 -5 10 -11 10 -5 0
-7 -4 -4 -10z"/>
<path d="M2860 4347 c0 -3 27 -22 59 -42 98 -59 261 -253 261 -310 0 -11 5
-26 11 -32 7 -7 6 -12 -5 -16 -9 -4 -15 -1 -13 5 1 6 -3 12 -9 15 -16 6 -25
-35 -11 -50 13 -13 19 -70 12 -104 -9 -38 -46 -23 -73 28 l-23 44 21 17 c25
20 20 32 -19 52 -24 13 -27 20 -23 48 5 33 4 33 -16 15 -19 -18 -20 -17 -33
12 -8 17 -19 31 -26 31 -6 0 -24 10 -38 23 l-27 23 -63 -32 c-34 -17 -67 -33
-74 -35 -6 -2 17 -58 58 -140 l68 -135 49 17 c59 20 117 48 125 61 4 7 9 7 13
0 3 -5 -37 -29 -89 -53 -72 -33 -93 -48 -88 -59 16 -39 73 -233 73 -251 0 -15
5 -19 18 -15 9 3 47 15 85 26 60 19 67 23 68 48 1 15 3 36 5 47 3 22 5 62 4
144 0 39 4 57 15 63 8 5 15 16 15 24 0 9 8 26 19 39 l18 24 23 -46 c13 -26 30
-91 39 -145 9 -54 20 -98 24 -98 4 0 26 9 48 21 38 19 40 22 34 52 -15 70 -74
207 -130 302 -83 142 -214 271 -367 364 -21 12 -38 20 -38 18z m114 -312 c20
-30 11 -55 -10 -28 -12 16 -19 53 -10 53 2 0 11 -11 20 -25z"/>
<path d="M2875 4266 c35 -31 85 -60 92 -52 3 2 0 13 -6 23 -6 10 -11 12 -11 5
0 -13 -22 -4 -80 35 -19 12 -17 9 5 -11z"/>
<path d="M2221 4214 c-1 -6 5 -17 13 -24 8 -6 12 -18 9 -26 -3 -8 0 -14 6 -14
6 0 11 -8 11 -17 1 -17 2 -16 11 1 8 13 8 24 -1 41 -7 13 -9 28 -5 35 6 9 3 9
-13 1 -15 -8 -22 -8 -25 2 -4 7 -6 8 -6 1z"/>
<path d="M2980 4195 c0 -3 9 -14 20 -25 11 -11 20 -27 20 -35 0 -8 5 -15 10
-15 18 0 11 28 -14 54 -22 24 -36 32 -36 21z"/>
<path d="M2309 4163 c-1 -5 0 -18 0 -30 1 -12 -6 -26 -16 -32 -17 -9 -17 -11
5 -31 24 -23 29 -40 10 -40 -9 0 -10 -3 -2 -8 6 -4 14 -14 17 -22 5 -15 11 29
8 63 -1 9 4 17 13 17 17 0 19 34 3 68 -10 21 -36 31 -38 15z"/>
<path d="M2005 4140 c-3 -5 1 -10 9 -10 9 0 16 5 16 10 0 6 -4 10 -9 10 -6 0
-13 -4 -16 -10z"/>
<path d="M2251 4072 c0 -7 -5 -10 -11 -7 -18 11 -10 -10 10 -28 23 -19 34 -22
24 -6 -3 6 0 16 7 21 11 8 10 9 -3 4 -10 -3 -18 1 -21 12 -3 9 -5 11 -6 4z"/>
<path d="M2005 4060 c-3 -6 1 -7 9 -4 18 7 21 14 7 14 -6 0 -13 -4 -16 -10z"/>
<path d="M2366 4046 c28 -20 79 -33 70 -17 -4 6 -18 11 -31 11 -13 0 -27 5
-30 10 -3 6 -11 10 -18 10 -6 0 -2 -6 9 -14z"/>
<path d="M2420 4056 c0 -2 7 -7 16 -10 8 -3 12 -2 9 4 -6 10 -25 14 -25 6z"/>
<path d="M2683 4012 c-52 -17 -77 -32 -53 -32 35 0 161 -146 176 -204 4 -18
13 -26 28 -26 48 1 47 12 -20 148 -35 72 -68 132 -72 131 -4 -1 -30 -8 -59
-17z"/>
<path d="M2320 3961 c0 -5 5 -13 10 -16 6 -3 10 -2 10 4 0 5 -4 13 -10 16 -5
3 -10 2 -10 -4z"/>
<path d="M2311 3874 c0 -11 3 -14 6 -6 3 7 2 16 -1 19 -3 4 -6 -2 -5 -13z"/>
<path d="M2470 3833 c8 -3 22 -11 30 -17 13 -10 13 -9 1 7 -7 9 -21 17 -30 16
-13 0 -14 -1 -1 -6z"/>
<path d="M2210 3806 c0 -2 8 -10 18 -17 15 -13 16 -12 3 4 -13 16 -21 21 -21
13z"/>
<path d="M2558 3803 c7 -3 16 -2 19 1 4 3 -2 6 -13 5 -11 0 -14 -3 -6 -6z"/>
<path d="M2851 3729 c-17 -7 -21 -14 -16 -27 18 -43 26 -114 20 -191 l-7 -84
23 6 c13 3 41 9 62 13 36 6 38 8 32 38 -11 55 -76 256 -83 255 -4 0 -18 -5
-31 -10z"/>
<path d="M1726 3570 c-14 -39 -26 -75 -26 -79 0 -4 19 -13 43 -20 23 -7 50
-15 60 -17 22 -7 24 28 2 46 -10 8 -12 17 -7 22 6 6 3 27 -7 54 -28 73 -35 73
-65 -6z"/>
<path d="M1296 3602 c-4 -15 -9 -94 -13 -176 -6 -148 -6 -149 18 -167 13 -10
27 -19 32 -19 4 0 7 54 7 120 0 66 3 120 8 120 4 0 15 -48 25 -108 24 -149 33
-177 61 -190 23 -10 24 -9 52 106 l29 117 3 -132 3 -133 36 -15 c19 -8 37 -15
39 -15 2 0 4 53 4 118 0 64 5 146 10 181 6 35 9 65 7 67 -1 2 -28 14 -59 28
l-56 25 -23 -62 c-44 -122 -41 -117 -50 -72 -4 22 -8 70 -8 107 l-1 68 -59 29
-59 30 -6 -27z"/>
<path d="M3361 3571 l-33 -16 7 -128 c7 -125 6 -129 -16 -153 -25 -27 -54 -31
-63 -9 -3 8 -8 66 -12 130 -4 63 -9 115 -11 115 -2 0 -19 -7 -38 -14 l-35 -15
0 -118 c0 -143 11 -190 46 -199 13 -3 33 -4 44 -1 40 10 18 -5 -52 -38 -40
-18 -112 -46 -160 -61 -49 -16 -88 -32 -88 -35 0 -4 9 -9 20 -12 30 -8 24 -40
-15 -87 -19 -23 -35 -51 -35 -62 0 -10 -5 -29 -11 -41 -9 -16 -9 -22 0 -25 19
-6 12 -84 -12 -132 -13 -25 -39 -74 -59 -110 -50 -91 -59 -128 -15 -64 38 54
57 69 127 99 86 37 194 100 230 135 19 19 52 67 72 106 21 39 44 77 52 84 29
23 115 291 100 309 -2 2 -18 -6 -37 -18 -50 -31 -53 -26 -14 20 47 54 56 101
48 240 l-6 116 -34 -16z"/>
<path d="M1810 3565 c0 -15 45 -121 54 -127 18 -12 17 -3 -9 50 -14 29 -25 59
-25 67 0 8 -4 15 -10 15 -5 0 -10 -2 -10 -5z"/>
<path d="M2200 3502 c0 -6 11 -14 25 -18 14 -3 25 -12 25 -19 0 -16 39 -64 40
-49 0 6 -7 17 -15 24 -8 7 -15 21 -15 31 0 12 -7 19 -18 19 -10 0 -23 5 -30
12 -9 9 -12 9 -12 0z"/>
<path d="M2105 3490 c11 -5 29 -8 40 -8 16 0 15 2 -5 8 -34 11 -60 11 -35 0z"/>
<path d="M1660 3433 c0 -47 20 -194 34 -253 8 -30 17 -67 20 -82 5 -21 15 -30
43 -37 20 -6 38 -9 40 -8 1 2 10 41 19 87 8 47 18 89 22 94 3 6 16 -37 29 -94
13 -57 25 -105 27 -107 2 -2 19 -6 38 -9 l34 -6 12 69 c7 37 26 112 43 167 32
103 30 120 -12 114 -20 -2 -27 -15 -47 -83 -13 -44 -26 -87 -29 -95 -8 -22
-23 39 -31 128 -7 73 -8 76 -37 84 -39 10 -48 -2 -76 -110 -21 -78 -24 -83
-31 -56 -5 16 -11 68 -15 116 -5 79 -8 87 -29 92 -12 3 -29 9 -38 12 -12 5
-16 0 -16 -23z"/>
<path d="M3038 3442 c-26 -9 -49 -20 -53 -23 -3 -4 -15 -48 -25 -99 -10 -51
-21 -94 -23 -97 -3 -2 -15 37 -27 86 l-22 90 -32 -6 c-17 -4 -42 -9 -56 -13
l-25 -7 1 -167 c1 -92 4 -169 7 -173 3 -3 18 -2 33 1 l27 7 -7 120 c-4 82 -3
119 4 114 5 -3 10 -11 10 -17 0 -5 14 -54 30 -108 31 -97 31 -98 58 -91 26 7
28 13 48 127 26 150 32 166 33 83 1 -36 4 -93 7 -126 l6 -60 41 11 40 11 -7
95 c-3 52 -6 132 -6 178 0 45 -3 82 -7 81 -5 0 -29 -8 -55 -17z"/>
<path d="M2643 3353 c-23 -4 -23 -6 -23 -174 l0 -169 34 0 c63 0 61 -6 58 180
-3 188 2 177 -69 163z"/>
<path d="M2140 3331 c-13 -25 -62 -184 -80 -260 -14 -59 -7 -71 38 -71 15 0
22 6 22 19 0 39 11 51 49 51 46 0 57 -8 66 -47 6 -31 9 -33 51 -33 24 0 44 3
44 8 0 4 -16 58 -35 120 -19 62 -37 135 -41 163 -4 27 -9 51 -13 53 -3 2 -25
7 -48 11 -36 6 -43 4 -53 -14z m54 -158 c7 -31 6 -33 -18 -33 -30 0 -33 17
-14 70 12 37 18 31 32 -37z"/>
<path d="M2368 3263 c-3 -43 -3 -122 0 -177 l5 -99 66 7 c36 3 83 6 104 6 37
0 37 0 37 41 l0 41 -60 -4 -60 -4 -2 55 c-1 31 0 91 1 134 l3 77 -45 0 -44 0
-5 -77z"/>
<path d="M1296 3178 c21 -92 64 -212 80 -221 14 -8 108 -149 134 -201 22 -42
99 -96 232 -162 106 -52 120 -62 154 -111 40 -58 52 -68 31 -25 -82 162 -127
262 -127 280 0 11 10 28 21 36 41 28 75 -1 166 -136 45 -68 94 -125 163 -188
55 -50 102 -100 105 -111 6 -18 15 -20 73 -19 114 3 124 6 159 59 17 27 64 75
105 107 60 49 146 150 136 159 -2 2 -42 -10 -89 -26 -47 -15 -111 -31 -142
-35 l-57 -7 0 30 c0 16 5 55 11 87 12 66 5 80 -41 90 -19 3 -37 17 -49 38
l-20 32 -4 -70 c-3 -68 -3 -67 -5 18 -2 85 -3 88 -32 110 -16 12 -30 28 -30
35 0 9 -16 13 -52 13 -29 1 -99 6 -155 13 l-103 13 -1 -65 -2 -66 -8 64 c-4
35 -10 65 -12 68 -3 2 -51 15 -108 28 -57 13 -144 38 -194 55 -91 32 -268 116
-316 151 -15 10 -29 19 -32 19 -3 0 1 -28 9 -62z m671 -370 c-3 -7 -5 -2 -5
12 0 14 2 19 5 13 2 -7 2 -19 0 -25z m496 -355 c4 -3 -1 -15 -10 -25 -15 -17
-15 -20 -3 -28 12 -8 12 -10 -3 -10 -51 0 -80 54 -34 63 37 7 43 7 50 0z"/>
<path d="M1129 2173 l-206 -3 -461 -925 c-254 -508 -462 -936 -462 -950 l0
-25 463 0 463 0 466 938 c431 865 465 938 451 955 -17 18 -63 19 -714 10z"/>
<path d="M2844 2138 c-22 -24 -62 -90 -89 -147 -54 -112 -252 -507 -629 -1255
-130 -258 -235 -470 -234 -471 2 -1 213 0 470 3 l467 5 476 948 c261 522 475
951 475 954 0 3 -202 5 -449 5 l-448 0 -39 -42z"/>
<path d="M3762 2034 c-28 -55 -135 -267 -237 -473 l-186 -374 216 -431 c119
-237 224 -442 234 -454 16 -21 29 -25 131 -33 71 -6 215 -5 380 1 146 5 296
10 334 10 l68 0 -7 28 c-13 52 -87 219 -194 437 -60 121 -137 279 -171 350
-72 151 -410 831 -474 954 l-43 84 -51 -99z"/>
<path d="M1675 1677 c-115 -232 -220 -443 -232 -469 l-22 -47 71 -138 c39 -76
120 -232 180 -348 60 -115 125 -242 145 -281 l36 -71 233 469 c129 258 234
472 234 475 0 4 -79 167 -176 362 -171 346 -238 471 -252 471 -4 0 -101 -190
-217 -423z"/>
</g>
</svg>
