<?xml version="1.0" standalone="no"?>
<!DOCTYPE svg PUBLIC "-//W3C//DTD SVG 20010904//EN"
 "http://www.w3.org/TR/2001/REC-SVG-20010904/DTD/svg10.dtd">
<svg version="1.0" xmlns="http://www.w3.org/2000/svg"
 width="346.000000pt" height="346.000000pt" viewBox="0 0 346.000000 346.000000"
 preserveAspectRatio="xMidYMid meet">
<metadata>
Created by potrace 1.14, written by Peter Selinger 2001-2017
</metadata>
<g transform="translate(0.000000,346.000000) scale(0.100000,-0.100000)"
fill="#000000" stroke="none">
<path d="M1657 3426 c-22 -8 -51 -25 -65 -38 -112 -101 -1375 -1375 -1389
-1400 -27 -51 -25 -172 4 -221 26 -43 28 -51 11 -41 -7 4 -8 3 -4 -5 4 -6 11
-9 16 -6 12 8 51 -36 43 -48 -3 -6 -1 -7 4 -4 12 7 93 -68 93 -86 0 -6 3 -7 6
-4 4 4 17 -5 30 -20 17 -20 20 -29 11 -36 -8 -6 -7 -7 4 -4 19 6 28 0 57 -37
12 -16 22 -26 22 -22 0 4 11 -5 25 -20 14 -15 25 -31 25 -35 0 -5 7 -9 16 -9
11 0 14 -6 9 -22 -4 -15 -3 -18 3 -10 6 10 15 7 35 -12 14 -13 24 -26 22 -28
-2 -2 9 -12 26 -23 16 -11 29 -26 29 -34 0 -8 3 -12 6 -8 8 7 76 -63 79 -82 1
-8 9 -15 18 -17 20 -3 48 -29 40 -38 -4 -3 0 -6 8 -6 8 0 23 -13 34 -29 11
-17 21 -28 23 -26 2 2 15 -8 28 -22 19 -21 22 -29 12 -36 -9 -6 -8 -7 5 -3 25
8 94 -63 75 -76 -10 -8 -9 -9 4 -5 17 6 54 -24 96 -77 12 -16 22 -26 22 -22 0
4 11 -5 25 -20 20 -21 23 -30 13 -36 -10 -7 -10 -8 2 -7 35 3 41 -1 35 -23 -4
-15 -3 -18 3 -10 6 10 15 7 35 -12 14 -13 24 -26 22 -28 -2 -2 9 -12 26 -23
16 -11 29 -26 29 -34 0 -8 3 -12 6 -8 11 11 83 -74 77 -91 -3 -12 -2 -13 4 -5
7 9 16 6 36 -11 15 -13 24 -26 20 -30 -3 -3 0 -6 7 -6 22 0 40 -33 27 -50 -10
-13 -10 -13 5 -1 16 11 22 9 52 -22 55 -57 91 -72 176 -72 63 0 82 4 120 26
25 15 58 41 73 59 18 20 34 29 44 26 14 -6 14 -4 2 11 -12 15 -12 16 3 10 12
-4 15 -2 12 8 -7 16 31 39 49 29 9 -5 9 -4 1 5 -9 10 -1 23 33 56 24 24 50 43
56 41 7 -1 9 -1 5 1 -14 8 -8 25 6 20 10 -4 13 -1 10 8 -7 16 31 39 49 29 9
-5 9 -4 0 6 -9 10 -6 18 14 36 14 13 30 21 36 17 5 -3 7 -2 4 4 -9 14 70 96
85 87 6 -4 8 -3 5 3 -7 12 38 65 47 56 3 -4 6 -1 6 5 0 14 80 88 91 85 5 -2 6
4 3 11 -3 9 3 17 15 21 12 3 19 10 16 14 -2 4 7 14 20 21 14 7 25 16 25 20 0
16 81 90 92 84 6 -4 8 -3 5 3 -7 12 38 65 47 56 3 -4 6 1 6 9 0 18 26 31 43
22 9 -5 9 -4 0 6 -15 16 31 61 55 53 13 -4 14 -3 3 5 -11 8 -4 19 33 54 25 25
46 42 46 39 0 -3 5 2 11 11 5 9 15 16 22 14 6 -1 9 -1 5 1 -14 8 -8 25 6 20
10 -4 13 -1 10 8 -7 16 31 39 49 29 9 -5 9 -4 1 5 -9 10 -2 22 28 52 34 34 43
38 57 27 14 -12 15 -11 2 5 -8 9 -11 21 -7 24 4 4 12 1 17 -7 9 -13 10 -12 6
1 -3 10 5 27 21 42 15 13 41 41 59 60 17 20 34 33 37 30 3 -4 6 -1 6 6 0 7 5
9 13 5 6 -4 9 -4 5 1 -4 4 5 28 20 54 23 39 27 57 27 121 0 52 -6 85 -18 108
-22 41 -1361 1381 -1416 1418 -50 32 -145 42 -204 20z m800 -829 c643 -642
683 -684 683 -717 0 -33 -40 -75 -683 -717 -642 -643 -684 -683 -717 -683 -33
0 -75 40 -717 683 -643 642 -683 684 -683 717 0 33 40 75 683 717 642 643 684
683 717 683 33 0 75 -40 717 -683z"/>
<path d="M255 1641 c-3 -5 -2 -12 3 -15 5 -3 9 1 9 9 0 17 -3 19 -12 6z"/>
<path d="M3196 1593 c-6 -14 -5 -15 5 -6 7 7 10 15 7 18 -3 3 -9 -2 -12 -12z"/>
<path d="M270 1566 c0 -2 7 -7 16 -10 8 -3 12 -2 9 4 -6 10 -25 14 -25 6z"/>
<path d="M3130 1559 c0 -5 5 -7 10 -4 6 3 10 8 10 11 0 2 -4 4 -10 4 -5 0 -10
-5 -10 -11z"/>
<path d="M366 1542 c-2 -4 4 -8 14 -8 10 0 16 4 14 8 -3 4 -9 8 -14 8 -5 0
-11 -4 -14 -8z"/>
<path d="M3115 1520 c3 -5 8 -10 11 -10 2 0 4 5 4 10 0 6 -5 10 -11 10 -5 0
-7 -4 -4 -10z"/>
<path d="M3056 1438 c3 -5 10 -6 15 -3 13 9 11 12 -6 12 -8 0 -12 -4 -9 -9z"/>
<path d="M457 1415 c-4 -8 -3 -16 1 -19 4 -3 9 4 9 15 2 23 -3 25 -10 4z"/>
<path d="M495 1420 c3 -5 8 -10 11 -10 2 0 4 5 4 10 0 6 -5 10 -11 10 -5 0 -7
-4 -4 -10z"/>
<path d="M2975 1400 c-3 -5 -1 -10 4 -10 6 0 11 5 11 10 0 6 -2 10 -4 10 -3 0
-8 -4 -11 -10z"/>
<path d="M595 1320 c3 -5 8 -10 11 -10 2 0 4 5 4 10 0 6 -5 10 -11 10 -5 0 -7
-4 -4 -10z"/>
<path d="M555 1261 c-3 -5 -2 -12 3 -15 5 -3 9 1 9 9 0 17 -3 19 -12 6z"/>
<path d="M590 1245 c0 -7 30 -13 34 -7 3 4 -4 9 -15 9 -10 1 -19 0 -19 -2z"/>
<path d="M2815 1240 c-3 -5 -1 -10 4 -10 6 0 11 5 11 10 0 6 -2 10 -4 10 -3 0
-8 -4 -11 -10z"/>
<path d="M690 1226 c0 -2 7 -7 16 -10 8 -3 12 -2 9 4 -6 10 -25 14 -25 6z"/>
<path d="M666 1202 c-3 -5 1 -9 9 -9 8 0 12 4 9 9 -3 4 -7 8 -9 8 -2 0 -6 -4
-9 -8z"/>
<path d="M695 1161 c-3 -5 -2 -12 3 -15 5 -3 9 1 9 9 0 17 -3 19 -12 6z"/>
<path d="M730 1159 c0 -5 5 -7 10 -4 6 3 10 8 10 11 0 2 -4 4 -10 4 -5 0 -10
-5 -10 -11z"/>
<path d="M2735 1160 c-3 -5 -1 -10 4 -10 6 0 11 5 11 10 0 6 -2 10 -4 10 -3 0
-8 -4 -11 -10z"/>
<path d="M796 1113 c-6 -14 -5 -15 5 -6 7 7 10 15 7 18 -3 3 -9 -2 -12 -12z"/>
<path d="M2726 1122 c-3 -5 1 -9 9 -9 8 0 12 4 9 9 -3 4 -7 8 -9 8 -2 0 -6 -4
-9 -8z"/>
<path d="M2650 1099 c0 -5 5 -7 10 -4 6 3 10 8 10 11 0 2 -4 4 -10 4 -5 0 -10
-5 -10 -11z"/>
<path d="M816 1042 c-2 -4 -1 -14 4 -22 7 -11 9 -9 7 8 -1 24 -3 26 -11 14z"/>
<path d="M2590 1039 c0 -5 5 -7 10 -4 6 3 10 8 10 11 0 2 -4 4 -10 4 -5 0 -10
-5 -10 -11z"/>
<path d="M895 1020 c3 -5 8 -10 11 -10 2 0 4 5 4 10 0 6 -5 10 -11 10 -5 0 -7
-4 -4 -10z"/>
<path d="M826 978 c3 -5 10 -6 15 -3 13 9 11 12 -6 12 -8 0 -12 -4 -9 -9z"/>
<path d="M2530 959 c0 -5 5 -7 10 -4 6 3 10 8 10 11 0 2 -4 4 -10 4 -5 0 -10
-5 -10 -11z"/>
<path d="M975 940 c3 -5 8 -10 11 -10 2 0 4 5 4 10 0 6 -5 10 -11 10 -5 0 -7
-4 -4 -10z"/>
<path d="M2520 920 c-12 -7 -10 -9 7 -7 12 0 19 5 17 9 -6 10 -6 10 -24 -2z"/>
<path d="M969 897 c6 -8 7 -18 3 -22 -4 -5 -1 -5 6 -1 10 6 10 11 1 22 -6 8
-14 14 -16 14 -3 0 0 -6 6 -13z"/>
<path d="M1010 880 c0 -5 5 -10 11 -10 5 0 7 5 4 10 -3 6 -8 10 -11 10 -2 0
-4 -4 -4 -10z"/>
<path d="M2415 840 c-3 -5 -1 -10 4 -10 6 0 11 5 11 10 0 6 -2 10 -4 10 -3 0
-8 -4 -11 -10z"/>
<path d="M1093 825 c0 -8 4 -12 9 -9 5 3 6 10 3 15 -9 13 -12 11 -12 -6z"/>
<path d="M2406 802 c-3 -5 1 -9 9 -9 8 0 12 4 9 9 -3 4 -7 8 -9 8 -2 0 -6 -4
-9 -8z"/>
<path d="M1135 780 c3 -5 8 -10 11 -10 2 0 4 5 4 10 0 6 -5 10 -11 10 -5 0 -7
-4 -4 -10z"/>
<path d="M2330 779 c0 -5 5 -7 10 -4 6 3 10 8 10 11 0 2 -4 4 -10 4 -5 0 -10
-5 -10 -11z"/>
<path d="M2390 746 c0 -2 7 -7 16 -10 8 -3 12 -2 9 4 -6 10 -25 14 -25 6z"/>
<path d="M2270 719 c0 -5 5 -7 10 -4 6 3 10 8 10 11 0 2 -4 4 -10 4 -5 0 -10
-5 -10 -11z"/>
<path d="M1235 680 c3 -5 8 -10 11 -10 2 0 4 5 4 10 0 6 -5 10 -11 10 -5 0 -7
-4 -4 -10z"/>
<path d="M1195 621 c-3 -5 -2 -12 3 -15 5 -3 9 1 9 9 0 17 -3 19 -12 6z"/>
<path d="M1230 605 c0 -7 30 -13 34 -7 3 4 -4 9 -15 9 -10 1 -19 0 -19 -2z"/>
<path d="M2175 600 c-3 -5 -1 -10 4 -10 6 0 11 5 11 10 0 6 -2 10 -4 10 -3 0
-8 -4 -11 -10z"/>
<path d="M1330 586 c0 -2 7 -7 16 -10 8 -3 12 -2 9 4 -6 10 -25 14 -25 6z"/>
<path d="M1306 562 c-3 -5 1 -9 9 -9 8 0 12 4 9 9 -3 4 -7 8 -9 8 -2 0 -6 -4
-9 -8z"/>
<path d="M2150 565 c0 -7 30 -13 34 -7 3 4 -4 9 -15 9 -10 1 -19 0 -19 -2z"/>
<path d="M1335 521 c-3 -5 -2 -12 3 -15 5 -3 9 1 9 9 0 17 -3 19 -12 6z"/>
<path d="M1370 519 c0 -5 5 -7 10 -4 6 3 10 8 10 11 0 2 -4 4 -10 4 -5 0 -10
-5 -10 -11z"/>
<path d="M1434 480 c0 -13 4 -16 10 -10 7 7 7 13 0 20 -6 6 -10 3 -10 -10z"/>
<path d="M2094 482 c4 -3 14 -7 22 -8 9 -1 13 0 10 4 -4 3 -14 7 -22 8 -9 1
-13 0 -10 -4z"/>
<path d="M2015 440 c-3 -5 -1 -10 4 -10 6 0 11 5 11 10 0 6 -2 10 -4 10 -3 0
-8 -4 -11 -10z"/>
<path d="M1456 402 c-2 -4 -1 -14 4 -22 7 -11 9 -9 7 8 -1 24 -3 26 -11 14z"/>
<path d="M1994 389 c-3 -6 -2 -15 3 -20 5 -5 9 -1 9 11 0 23 -2 24 -12 9z"/>
<path d="M1535 380 c3 -5 8 -10 11 -10 2 0 4 5 4 10 0 6 -5 10 -11 10 -5 0 -7
-4 -4 -10z"/>
<path d="M1466 338 c3 -5 10 -6 15 -3 13 9 11 12 -6 12 -8 0 -12 -4 -9 -9z"/>
<path d="M1570 319 c0 -5 5 -7 10 -4 6 3 10 8 10 11 0 2 -4 4 -10 4 -5 0 -10
-5 -10 -11z"/>
<path d="M1850 320 c0 -5 5 -10 11 -10 5 0 7 5 4 10 -3 6 -8 10 -11 10 -2 0
-4 -4 -4 -10z"/>
<path d="M1890 320 c0 -5 5 -10 11 -10 5 0 7 5 4 10 -3 6 -8 10 -11 10 -2 0
-4 -4 -4 -10z"/>
<path d="M1655 280 c3 -5 8 -10 11 -10 2 0 4 5 4 10 0 6 -5 10 -11 10 -5 0 -7
-4 -4 -10z"/>
<path d="M1690 280 c0 -5 5 -10 11 -10 5 0 7 5 4 10 -3 6 -8 10 -11 10 -2 0
-4 -4 -4 -10z"/>
<path d="M1730 279 c0 -5 5 -7 10 -4 6 3 10 8 10 11 0 2 -4 4 -10 4 -5 0 -10
-5 -10 -11z"/>
<path d="M1850 280 c0 -5 5 -10 11 -10 5 0 7 5 4 10 -3 6 -8 10 -11 10 -2 0
-4 -4 -4 -10z"/>
</g>
</svg>
